<svg width="225" height="24" viewBox="0 0 225 24" fill="none" xmlns="http://www.w3.org/2000/svg">
<path d="M8.01562 14.9609C8.01562 15.9661 7.65104 16.75 6.92188 17.3125C6.19271 17.875 5.20312 18.1562 3.95312 18.1562C2.59896 18.1562 1.55729 17.9818 0.828125 17.6328V16.3516C1.29688 16.5495 1.80729 16.7057 2.35938 16.8203C2.91146 16.9349 3.45833 16.9922 4 16.9922C4.88542 16.9922 5.55208 16.8255 6 16.4922C6.44792 16.1536 6.67188 15.6849 6.67188 15.0859C6.67188 14.6901 6.59115 14.3672 6.42969 14.1172C6.27344 13.862 6.00781 13.6276 5.63281 13.4141C5.26302 13.2005 4.69792 12.9583 3.9375 12.6875C2.875 12.3073 2.11458 11.8568 1.65625 11.3359C1.20312 10.8151 0.976562 10.1354 0.976562 9.29688C0.976562 8.41667 1.30729 7.71615 1.96875 7.19531C2.63021 6.67448 3.50521 6.41406 4.59375 6.41406C5.72917 6.41406 6.77344 6.6224 7.72656 7.03906L7.3125 8.19531C6.36979 7.79948 5.45312 7.60156 4.5625 7.60156C3.85938 7.60156 3.3099 7.7526 2.91406 8.05469C2.51823 8.35677 2.32031 8.77604 2.32031 9.3125C2.32031 9.70833 2.39323 10.0339 2.53906 10.2891C2.6849 10.5391 2.92969 10.7708 3.27344 10.9844C3.6224 11.1927 4.15365 11.4245 4.86719 11.6797C6.0651 12.1068 6.88802 12.5651 7.33594 13.0547C7.78906 13.5443 8.01562 14.1797 8.01562 14.9609ZM17.1484 18L15.5781 12.9766C15.4792 12.6693 15.2943 11.9714 15.0234 10.8828H14.9609C14.7526 11.7943 14.5703 12.4974 14.4141 12.9922L12.7969 18H11.2969L8.96094 9.4375H10.3203C10.8724 11.5885 11.2917 13.2266 11.5781 14.3516C11.8698 15.4766 12.0365 16.2344 12.0781 16.625H12.1406C12.1979 16.3281 12.2891 15.9453 12.4141 15.4766C12.5443 15.0026 12.6562 14.6276 12.75 14.3516L14.3203 9.4375H15.7266L17.2578 14.3516C17.5495 15.2474 17.7474 16 17.8516 16.6094H17.9141C17.9349 16.4219 17.9896 16.1328 18.0781 15.7422C18.1719 15.3516 18.7161 13.25 19.7109 9.4375H21.0547L18.6875 18H17.1484ZM23.9062 18H22.6094V9.4375H23.9062V18ZM22.5 7.11719C22.5 6.82031 22.5729 6.60417 22.7188 6.46875C22.8646 6.32812 23.0469 6.25781 23.2656 6.25781C23.474 6.25781 23.6536 6.32812 23.8047 6.46875C23.9557 6.60938 24.0312 6.82552 24.0312 7.11719C24.0312 7.40885 23.9557 7.6276 23.8047 7.77344C23.6536 7.91406 23.474 7.98438 23.2656 7.98438C23.0469 7.98438 22.8646 7.91406 22.7188 7.77344C22.5729 7.6276 22.5 7.40885 22.5 7.11719ZM30.6406 18.1562C30.0833 18.1562 29.5729 18.0547 29.1094 17.8516C28.651 17.6432 28.2656 17.3255 27.9531 16.8984H27.8594C27.9219 17.3984 27.9531 17.8724 27.9531 18.3203V21.8438H26.6562V9.4375H27.7109L27.8906 10.6094H27.9531C28.2865 10.1406 28.6745 9.80208 29.1172 9.59375C29.5599 9.38542 30.0677 9.28125 30.6406 9.28125C31.776 9.28125 32.651 9.66927 33.2656 10.4453C33.8854 11.2214 34.1953 12.3099 34.1953 13.7109C34.1953 15.1172 33.8802 16.2109 33.25 16.9922C32.625 17.7682 31.7552 18.1562 30.6406 18.1562ZM30.4531 10.3828C29.5781 10.3828 28.9453 10.625 28.5547 11.1094C28.1641 11.5938 27.9635 12.3646 27.9531 13.4219V13.7109C27.9531 14.9141 28.1536 15.776 28.5547 16.2969C28.9557 16.8125 29.599 17.0703 30.4844 17.0703C31.224 17.0703 31.8021 16.7708 32.2188 16.1719C32.6406 15.5729 32.8516 14.7474 32.8516 13.6953C32.8516 12.6276 32.6406 11.8099 32.2188 11.2422C31.8021 10.6693 31.2135 10.3828 30.4531 10.3828ZM40.0859 18.1562C38.8203 18.1562 37.8203 17.7708 37.0859 17C36.3568 16.2292 35.9922 15.1589 35.9922 13.7891C35.9922 12.4089 36.3307 11.3125 37.0078 10.5C37.6901 9.6875 38.6042 9.28125 39.75 9.28125C40.8229 9.28125 41.6719 9.63542 42.2969 10.3438C42.9219 11.0469 43.2344 11.9766 43.2344 13.1328V13.9531H37.3359C37.362 14.9583 37.6146 15.7214 38.0938 16.2422C38.5781 16.763 39.2578 17.0234 40.1328 17.0234C41.0547 17.0234 41.9661 16.8307 42.8672 16.4453V17.6016C42.4089 17.7995 41.974 17.9401 41.5625 18.0234C41.1562 18.112 40.6641 18.1562 40.0859 18.1562ZM39.7344 10.3672C39.0469 10.3672 38.4974 10.5911 38.0859 11.0391C37.6797 11.487 37.4401 12.1068 37.3672 12.8984H41.8438C41.8438 12.0807 41.6615 11.4557 41.2969 11.0234C40.9323 10.5859 40.4115 10.3672 39.7344 10.3672ZM52.375 17.0859C52.6042 17.0859 52.8255 17.0703 53.0391 17.0391C53.2526 17.0026 53.4219 16.9661 53.5469 16.9297V17.9219C53.4062 17.9896 53.1979 18.0443 52.9219 18.0859C52.651 18.1328 52.4062 18.1562 52.1875 18.1562C50.5312 18.1562 49.7031 17.2839 49.7031 15.5391V10.4453H48.4766V9.82031L49.7031 9.28125L50.25 7.45312H51V9.4375H53.4844V10.4453H51V15.4844C51 16 51.1224 16.3958 51.3672 16.6719C51.612 16.9479 51.9479 17.0859 52.375 17.0859ZM62.6562 13.7109C62.6562 15.1068 62.3047 16.1979 61.6016 16.9844C60.8984 17.7656 59.9271 18.1562 58.6875 18.1562C57.9219 18.1562 57.2422 17.9766 56.6484 17.6172C56.0547 17.2578 55.5964 16.7422 55.2734 16.0703C54.9505 15.3984 54.7891 14.612 54.7891 13.7109C54.7891 12.3151 55.138 11.2292 55.8359 10.4531C56.5339 9.67188 57.5026 9.28125 58.7422 9.28125C59.9401 9.28125 60.8906 9.67969 61.5938 10.4766C62.3021 11.2734 62.6562 12.3516 62.6562 13.7109ZM56.1328 13.7109C56.1328 14.8047 56.3516 15.638 56.7891 16.2109C57.2266 16.7839 57.8698 17.0703 58.7188 17.0703C59.5677 17.0703 60.2109 16.7865 60.6484 16.2188C61.0911 15.6458 61.3125 14.8099 61.3125 13.7109C61.3125 12.6224 61.0911 11.7969 60.6484 11.2344C60.2109 10.6667 59.5625 10.3828 58.7031 10.3828C57.8542 10.3828 57.2135 10.6615 56.7812 11.2188C56.349 11.776 56.1328 12.6068 56.1328 13.7109ZM74.6172 15.6641C74.6172 16.4609 74.3203 17.0755 73.7266 17.5078C73.1328 17.9401 72.2995 18.1562 71.2266 18.1562C70.0911 18.1562 69.2057 17.9766 68.5703 17.6172V16.4141C68.9818 16.6224 69.4219 16.7865 69.8906 16.9062C70.3646 17.026 70.8203 17.0859 71.2578 17.0859C71.9349 17.0859 72.4557 16.9792 72.8203 16.7656C73.1849 16.5469 73.3672 16.2161 73.3672 15.7734C73.3672 15.4401 73.2214 15.1562 72.9297 14.9219C72.6432 14.6823 72.0807 14.401 71.2422 14.0781C70.4453 13.7812 69.8776 13.5234 69.5391 13.3047C69.2057 13.0807 68.9557 12.8281 68.7891 12.5469C68.6276 12.2656 68.5469 11.9297 68.5469 11.5391C68.5469 10.8411 68.8307 10.2917 69.3984 9.89062C69.9661 9.48438 70.7448 9.28125 71.7344 9.28125C72.6562 9.28125 73.5573 9.46875 74.4375 9.84375L73.9766 10.8984C73.1172 10.5443 72.3385 10.3672 71.6406 10.3672C71.026 10.3672 70.5625 10.4635 70.25 10.6562C69.9375 10.849 69.7812 11.1146 69.7812 11.4531C69.7812 11.6823 69.8385 11.8776 69.9531 12.0391C70.0729 12.2005 70.263 12.3542 70.5234 12.5C70.7839 12.6458 71.2839 12.8568 72.0234 13.1328C73.0391 13.5026 73.724 13.875 74.0781 14.25C74.4375 14.625 74.6172 15.0964 74.6172 15.6641ZM80.3516 18.1562C79.0859 18.1562 78.0859 17.7708 77.3516 17C76.6224 16.2292 76.2578 15.1589 76.2578 13.7891C76.2578 12.4089 76.5964 11.3125 77.2734 10.5C77.9557 9.6875 78.8698 9.28125 80.0156 9.28125C81.0885 9.28125 81.9375 9.63542 82.5625 10.3438C83.1875 11.0469 83.5 11.9766 83.5 13.1328V13.9531H77.6016C77.6276 14.9583 77.8802 15.7214 78.3594 16.2422C78.8438 16.763 79.5234 17.0234 80.3984 17.0234C81.3203 17.0234 82.2318 16.8307 83.1328 16.4453V17.6016C82.6745 17.7995 82.2396 17.9401 81.8281 18.0234C81.4219 18.112 80.9297 18.1562 80.3516 18.1562ZM80 10.3672C79.3125 10.3672 78.763 10.5911 78.3516 11.0391C77.9453 11.487 77.7057 12.1068 77.6328 12.8984H82.1094C82.1094 12.0807 81.9271 11.4557 81.5625 11.0234C81.1979 10.5859 80.6771 10.3672 80 10.3672ZM89.3359 18.1562C88.0703 18.1562 87.0703 17.7708 86.3359 17C85.6068 16.2292 85.2422 15.1589 85.2422 13.7891C85.2422 12.4089 85.5807 11.3125 86.2578 10.5C86.9401 9.6875 87.8542 9.28125 89 9.28125C90.0729 9.28125 90.9219 9.63542 91.5469 10.3438C92.1719 11.0469 92.4844 11.9766 92.4844 13.1328V13.9531H86.5859C86.612 14.9583 86.8646 15.7214 87.3438 16.2422C87.8281 16.763 88.5078 17.0234 89.3828 17.0234C90.3047 17.0234 91.2161 16.8307 92.1172 16.4453V17.6016C91.6589 17.7995 91.224 17.9401 90.8125 18.0234C90.4062 18.112 89.9141 18.1562 89.3359 18.1562ZM88.9844 10.3672C88.2969 10.3672 87.7474 10.5911 87.3359 11.0391C86.9297 11.487 86.6901 12.1068 86.6172 12.8984H91.0938C91.0938 12.0807 90.9115 11.4557 90.5469 11.0234C90.1823 10.5859 89.6615 10.3672 88.9844 10.3672ZM109.773 18V12.4297C109.773 11.7474 109.628 11.237 109.336 10.8984C109.044 10.5547 108.591 10.3828 107.977 10.3828C107.169 10.3828 106.573 10.6146 106.188 11.0781C105.802 11.5417 105.609 12.2552 105.609 13.2188V18H104.312V12.4297C104.312 11.7474 104.167 11.237 103.875 10.8984C103.583 10.5547 103.128 10.3828 102.508 10.3828C101.695 10.3828 101.099 10.6276 100.719 11.1172C100.344 11.6016 100.156 12.3984 100.156 13.5078V18H98.8594V9.4375H99.9141L100.125 10.6094H100.188C100.432 10.1927 100.776 9.86719 101.219 9.63281C101.667 9.39844 102.167 9.28125 102.719 9.28125C104.057 9.28125 104.932 9.76562 105.344 10.7344H105.406C105.661 10.2865 106.031 9.93229 106.516 9.67188C107 9.41146 107.552 9.28125 108.172 9.28125C109.141 9.28125 109.865 9.53125 110.344 10.0312C110.828 10.526 111.07 11.3203 111.07 12.4141V18H109.773ZM121.141 13.7109C121.141 15.1068 120.789 16.1979 120.086 16.9844C119.383 17.7656 118.411 18.1562 117.172 18.1562C116.406 18.1562 115.727 17.9766 115.133 17.6172C114.539 17.2578 114.081 16.7422 113.758 16.0703C113.435 15.3984 113.273 14.612 113.273 13.7109C113.273 12.3151 113.622 11.2292 114.32 10.4531C115.018 9.67188 115.987 9.28125 117.227 9.28125C118.424 9.28125 119.375 9.67969 120.078 10.4766C120.786 11.2734 121.141 12.3516 121.141 13.7109ZM114.617 13.7109C114.617 14.8047 114.836 15.638 115.273 16.2109C115.711 16.7839 116.354 17.0703 117.203 17.0703C118.052 17.0703 118.695 16.7865 119.133 16.2188C119.576 15.6458 119.797 14.8099 119.797 13.7109C119.797 12.6224 119.576 11.7969 119.133 11.2344C118.695 10.6667 118.047 10.3828 117.188 10.3828C116.339 10.3828 115.698 10.6615 115.266 11.2188C114.833 11.776 114.617 12.6068 114.617 13.7109ZM127.328 9.28125C127.708 9.28125 128.049 9.3125 128.352 9.375L128.172 10.5781C127.818 10.5 127.505 10.4609 127.234 10.4609C126.542 10.4609 125.948 10.7422 125.453 11.3047C124.964 11.8672 124.719 12.5677 124.719 13.4062V18H123.422V9.4375H124.492L124.641 11.0234H124.703C125.021 10.4661 125.404 10.0365 125.852 9.73438C126.299 9.43229 126.792 9.28125 127.328 9.28125ZM133.57 18.1562C132.305 18.1562 131.305 17.7708 130.57 17C129.841 16.2292 129.477 15.1589 129.477 13.7891C129.477 12.4089 129.815 11.3125 130.492 10.5C131.174 9.6875 132.089 9.28125 133.234 9.28125C134.307 9.28125 135.156 9.63542 135.781 10.3438C136.406 11.0469 136.719 11.9766 136.719 13.1328V13.9531H130.82C130.846 14.9583 131.099 15.7214 131.578 16.2422C132.062 16.763 132.742 17.0234 133.617 17.0234C134.539 17.0234 135.451 16.8307 136.352 16.4453V17.6016C135.893 17.7995 135.458 17.9401 135.047 18.0234C134.641 18.112 134.148 18.1562 133.57 18.1562ZM133.219 10.3672C132.531 10.3672 131.982 10.5911 131.57 11.0391C131.164 11.487 130.924 12.1068 130.852 12.8984H135.328C135.328 12.0807 135.146 11.4557 134.781 11.0234C134.417 10.5859 133.896 10.3672 133.219 10.3672Z" fill="#899D9D"/>
<path d="M224.354 14.3536C224.549 14.1583 224.549 13.8417 224.354 13.6465L221.172 10.4645C220.976 10.2692 220.66 10.2692 220.464 10.4645C220.269 10.6597 220.269 10.9763 220.464 11.1716L223.293 14L220.464 16.8284C220.269 17.0237 220.269 17.3403 220.464 17.5355C220.66 17.7308 220.976 17.7308 221.172 17.5355L224.354 14.3536ZM144 14.5L224 14.5L224 13.5L144 13.5L144 14.5Z" fill="#899D9D"/>
</svg>
